<svg width="1302" height="1508" viewBox="0 0 1302 1508" fill="none" xmlns="http://www.w3.org/2000/svg">
  <path
    d="M641.74 364.791C725.011 364.791 798.061 332.274 860.888 267.239C923.715 202.204 955.131 126.58 955.131 40.3666C955.131 30.8979 954.381 17.4423 952.886 0C941.916 1.49506 933.689 2.74094 928.204 3.73764C851.415 14.7014 783.85 52.327 725.509 116.613C667.17 180.9 638.001 249.673 638.001 322.931C638.001 331.401 639.247 345.357 641.74 364.791ZM940.171 1507.75C999.508 1507.75 1065.08 1467.14 1136.88 1385.91C1208.69 1304.68 1263.53 1209.24 1301.43 1099.61C1160.32 1026.85 1089.76 922.444 1089.76 786.394C1089.76 672.771 1146.85 575.594 1261.04 494.861C1181.76 395.689 1077.05 346.103 946.903 346.103C892.052 346.103 841.941 354.325 796.566 370.771L768.144 381.236L729.998 396.187C705.066 405.656 682.378 410.392 661.934 410.392C645.977 410.392 625.034 404.908 599.107 393.944L569.936 381.984L542.263 370.771C501.873 353.827 458.492 345.355 412.12 345.355C287.96 345.355 188.234 387.217 112.94 470.94C37.6462 554.662 0 665.047 0 802.092C0 994.953 60.334 1173.11 181.004 1336.57C264.774 1450.69 341.314 1507.75 410.623 1507.75C440.044 1507.75 469.213 1502.02 498.133 1490.56L534.783 1475.61L563.954 1465.15C604.841 1450.69 642.487 1443.47 676.893 1443.47C713.293 1443.47 755.179 1452.69 802.549 1471.13L825.735 1480.1C874.101 1498.53 912.249 1507.75 940.171 1507.75Z"
    fill="black" />
</svg>