<svg width="1302" height="1302" viewBox="0 0 1302 1302" fill="none" xmlns="http://www.w3.org/2000/svg">
  <path fill-rule="evenodd" clip-rule="evenodd"
    d="M651 0.287415C1010.38 0.287415 1301.71 291.622 1301.71 651C1301.71 1010.38 1010.38 1301.71 651 1301.71C291.622 1301.71 0.287537 1010.38 0.287537 651C0.287537 291.622 291.622 0.287415 651 0.287415Z"
    fill="url(#paint0_linear_1_8)" />
  <path
    d="M735.549 1296.25V793.628H877.248L896.031 616.729H735.549L735.788 528.183C735.788 482.044 740.171 457.333 806.443 457.333H895.037V280.404H753.306C583.063 280.404 523.151 366.215 523.151 510.543V616.743H417.027V793.658H523.151V1289.12C564.495 1297.36 607.237 1301.71 651 1301.71C679.272 1301.71 707.513 1299.89 735.549 1296.25Z"
    fill="white" />
  <defs>
    <linearGradient id="paint0_linear_1_8" x1="651" y1="-11.5692" x2="651" y2="1357.21" gradientUnits="userSpaceOnUse">
      <stop stop-color="#00B2FF" />
      <stop offset="1" stop-color="#006AFF" />
    </linearGradient>
  </defs>
</svg>