<svg width="1302" height="1333" viewBox="0 0 1302 1333" fill="none" xmlns="http://www.w3.org/2000/svg">
  <mask id="mask0_1_52" style="mask-type:luminance" maskUnits="userSpaceOnUse" x="0" y="0" width="1302" height="1333">
    <path
      d="M1286.33 545.52H665.879V802.779H1023.02C989.723 966.215 850.501 1060.04 665.879 1060.04C447.965 1060.04 272.424 884.497 272.424 666.583C272.424 448.669 447.965 273.128 665.879 273.128C759.703 273.128 844.447 306.421 911.032 360.899L1104.73 167.197C986.697 64.2936 835.368 0.735352 665.879 0.735352C296.636 0.735352 0.03125 297.34 0.03125 666.583C0.03125 1035.83 296.636 1332.43 665.879 1332.43C998.803 1332.43 1301.46 1090.3 1301.46 666.583C1301.46 627.238 1295.41 584.866 1286.33 545.52Z"
      fill="white" />
  </mask>
  <g mask="url(#mask0_1_52)">
    <path d="M-60.5007 1060.04V273.128L454.018 666.583L-60.5007 1060.04Z" fill="#FBBC05" />
  </g>
  <mask id="mask1_1_52" style="mask-type:luminance" maskUnits="userSpaceOnUse" x="0" y="0" width="1302" height="1333">
    <path
      d="M1286.33 545.52H665.879V802.779H1023.02C989.723 966.215 850.501 1060.04 665.879 1060.04C447.965 1060.04 272.424 884.497 272.424 666.583C272.424 448.669 447.965 273.128 665.879 273.128C759.703 273.128 844.447 306.421 911.032 360.899L1104.73 167.197C986.697 64.2936 835.368 0.735352 665.879 0.735352C296.636 0.735352 0.03125 297.34 0.03125 666.583C0.03125 1035.83 296.636 1332.43 665.879 1332.43C998.803 1332.43 1301.46 1090.3 1301.46 666.583C1301.46 627.238 1295.41 584.866 1286.33 545.52Z"
      fill="white" />
  </mask>
  <g mask="url(#mask1_1_52)">
    <path d="M-60.5007 273.127L454.018 666.583L665.879 481.962L1392.26 363.925V-59.7966H-60.5007V273.127Z"
      fill="#EA4335" />
  </g>
  <mask id="mask2_1_52" style="mask-type:luminance" maskUnits="userSpaceOnUse" x="0" y="0" width="1302" height="1333">
    <path
      d="M1286.33 545.52H665.879V802.779H1023.02C989.723 966.215 850.501 1060.04 665.879 1060.04C447.965 1060.04 272.424 884.497 272.424 666.583C272.424 448.669 447.965 273.128 665.879 273.128C759.703 273.128 844.447 306.421 911.032 360.899L1104.73 167.197C986.697 64.2936 835.368 0.735352 665.879 0.735352C296.636 0.735352 0.03125 297.34 0.03125 666.583C0.03125 1035.83 296.636 1332.43 665.879 1332.43C998.803 1332.43 1301.46 1090.3 1301.46 666.583C1301.46 627.238 1295.41 584.866 1286.33 545.52Z"
      fill="white" />
  </mask>
  <g mask="url(#mask2_1_52)">
    <path d="M-60.5007 1060.04L847.474 363.925L1086.57 394.191L1392.26 -59.7966V1392.96H-60.5007V1060.04Z"
      fill="#34A853" />
  </g>
  <mask id="mask3_1_52" style="mask-type:luminance" maskUnits="userSpaceOnUse" x="0" y="0" width="1302" height="1333">
    <path
      d="M1286.33 545.52H665.879V802.779H1023.02C989.723 966.215 850.501 1060.04 665.879 1060.04C447.965 1060.04 272.424 884.497 272.424 666.583C272.424 448.669 447.965 273.128 665.879 273.128C759.703 273.128 844.447 306.421 911.032 360.899L1104.73 167.197C986.697 64.2936 835.368 0.735352 665.879 0.735352C296.636 0.735352 0.03125 297.34 0.03125 666.583C0.03125 1035.83 296.636 1332.43 665.879 1332.43C998.803 1332.43 1301.46 1090.3 1301.46 666.583C1301.46 627.238 1295.41 584.866 1286.33 545.52Z"
      fill="white" />
  </mask>
  <g mask="url(#mask3_1_52)">
    <path d="M1392.26 1392.96L454.018 666.583L332.955 575.786L1392.26 273.128V1392.96Z" fill="#4285F4" />
  </g>
</svg>